<?xml version="1.0" encoding="utf-8"?>
<!-- Generator: Adobe Illustrator 26.2.1, SVG Export Plug-In . SVG Version: 6.00 Build 0)  -->
<svg version="1.1" id="Layer_1" xmlns="http://www.w3.org/2000/svg" xmlns:xlink="http://www.w3.org/1999/xlink" x="0px" y="0px"
	 viewBox="0 0 210.5 50.8" style="enable-background:new 0 0 210.5 50.8;" xml:space="preserve">
<style type="text/css">
	.st0{fill-rule:evenodd;clip-rule:evenodd;fill:#065BF7;}
	.st1{fill-rule:evenodd;clip-rule:evenodd;fill:#2A3A51;}
</style>
<g id="Layer_2_00000060726500969239863220000004220494073822669737_">
	<g id="Layer_1-2">
		<polygon class="st0" points="78.3,8.4 73.6,8.4 63.7,31.7 69.3,31.7 75.9,14.5 82.5,31.7 88.2,31.7 		"/>
		<path class="st0" d="M102.7,18.3v4.4h5.1V26c-1.4,0.9-3,1.4-4.7,1.4c-1.9,0-3.7-0.7-5-2.1c-0.7-0.7-1.2-1.5-1.5-2.4
			c-0.7-1.8-0.7-3.9,0-5.7c0.3-0.8,0.8-1.6,1.4-2.2c0.6-0.7,1.3-1.2,2.1-1.6c0.8-0.4,1.7-0.6,2.6-0.6c0.6,0,1.2,0.1,1.8,0.2
			c0.5,0.1,1.1,0.2,1.6,0.5c0.5,0.2,0.9,0.4,1.4,0.7c0.5,0.3,0.9,0.6,1.3,1l3.2-3.8c-0.6-0.5-1.2-1-1.8-1.4c-0.7-0.4-1.4-0.7-2.1-1
			c-0.8-0.3-1.6-0.5-2.4-0.6c-0.9-0.1-1.9-0.2-2.8-0.2c-1.7,0-3.3,0.3-4.8,1c-1.4,0.6-2.7,1.5-3.8,2.6c-1.1,1.1-1.9,2.4-2.5,3.8
			c-0.6,1.5-0.9,3-0.9,4.6v0.1c0,1.6,0.3,3.2,0.9,4.7c1.1,2.9,3.4,5.2,6.3,6.3c1.6,0.6,3.2,0.9,4.9,0.9c1.9,0,3.8-0.3,5.6-1.1
			c1.5-0.7,3-1.6,4.3-2.7v-10L102.7,18.3z"/>
		<polygon class="st0" points="122.6,27.1 122.6,22.2 133.5,22.2 133.5,17.7 122.6,17.7 122.6,13 135,13 135,8.5 117.7,8.5 
			117.7,31.7 135.2,31.7 135.2,27.2 		"/>
		<polygon class="st0" points="155.2,8.6 155.2,22.7 144.4,8.6 139.7,8.6 139.7,31.7 144.7,31.7 144.7,17 155.9,31.7 160.2,31.7 
			160.2,8.6 		"/>
		<path class="st0" d="M182.8,24.6c-0.8,0.8-1.7,1.5-2.7,2c-1,0.5-2.2,0.8-3.3,0.7c-0.9,0-1.9-0.2-2.7-0.6c-0.8-0.4-1.5-0.9-2.1-1.6
			c-0.6-0.7-1.1-1.5-1.4-2.3c-0.3-0.9-0.5-1.9-0.5-2.8c0-0.9,0.2-1.9,0.5-2.8c0.3-0.9,0.8-1.7,1.4-2.3c0.6-0.7,1.3-1.2,2.1-1.6
			c0.8-0.4,1.8-0.6,2.7-0.6c1.1,0,2.2,0.2,3.1,0.7c1,0.5,2,1.1,2.8,1.9l3.1-3.7c-0.5-0.5-1.1-1-1.7-1.4c-0.6-0.5-1.3-0.8-2-1.1
			c-0.8-0.3-1.6-0.6-2.4-0.7c-1-0.2-2-0.3-3-0.3c-1.7,0-3.3,0.3-4.9,0.9c-2.9,1.2-5.1,3.4-6.3,6.3c-0.6,1.5-0.9,3-0.9,4.6v0.1
			c0,1.6,0.3,3.2,0.9,4.6c0.6,1.4,1.4,2.7,2.5,3.8c2.2,2.2,5.3,3.5,8.4,3.5c1,0,2-0.1,3-0.3c0.9-0.2,1.7-0.5,2.5-0.9
			c0.7-0.4,1.5-0.8,2.1-1.3c0.7-0.6,1.3-1.1,1.9-1.8L182.8,24.6z"/>
		<polygon class="st0" points="204.8,8.6 199.2,17.8 193.8,8.6 187.8,8.6 196.7,22.5 196.7,31.7 201.6,31.7 201.6,22.5 210.5,8.6 		
			"/>
		<path class="st1" d="M75.1,49.5c-0.4,0.3-0.7,0.5-1.1,0.7c-0.4,0.2-0.9,0.4-1.3,0.5c-0.5,0.1-1.1,0.1-1.6,0.1
			c-1.7,0-3.3-0.7-4.6-1.9c-0.6-0.6-1-1.2-1.3-2c-0.4-0.8-0.5-1.7-0.6-2.5c0-0.9,0.2-1.7,0.5-2.5c0.3-0.8,0.8-1.5,1.3-2.1
			c1.2-1.3,2.9-2,4.7-2c0.5,0,1.1,0,1.6,0.1c0.4,0.1,0.9,0.2,1.3,0.4c0.4,0.2,0.7,0.4,1.1,0.6c0.3,0.2,0.6,0.5,0.9,0.8l-1.4,1.5
			c-0.5-0.5-1-0.8-1.6-1.1c-0.6-0.3-1.2-0.4-1.9-0.4c-0.5,0-1.1,0.1-1.6,0.3c-1,0.4-1.8,1.3-2.2,2.4C67.1,43,67,43.6,67,44.2
			c0,0.6,0.1,1.2,0.3,1.8c0.2,0.5,0.5,1,0.8,1.4c0.4,0.4,0.8,0.8,1.3,1c1.2,0.5,2.5,0.5,3.6-0.1c0.6-0.3,1.1-0.7,1.6-1.2l1.4,1.4
			C75.8,48.9,75.5,49.3,75.1,49.5L75.1,49.5z"/>
		<path class="st1" d="M96.9,42.6c-0.2-0.5-0.5-1-0.9-1.4c-0.4-0.4-0.8-0.8-1.4-1c-1.1-0.5-2.3-0.5-3.4,0c-0.5,0.2-1,0.6-1.3,1
			c-0.4,0.4-0.7,0.9-0.9,1.4c-0.4,1.1-0.4,2.3,0,3.5c0.4,1.1,1.2,1.9,2.2,2.4c1.1,0.5,2.3,0.5,3.4,0c0.5-0.2,1-0.6,1.3-1
			c0.4-0.4,0.7-0.9,0.9-1.4C97.4,44.9,97.4,43.7,96.9,42.6L96.9,42.6z M99,46.8c-0.7,1.5-1.9,2.8-3.4,3.4c-0.8,0.4-1.7,0.5-2.7,0.5
			c-0.9,0-1.8-0.2-2.7-0.5c-0.8-0.3-1.4-0.8-2-1.4c-0.6-0.6-1.1-1.3-1.4-2.1c-0.6-1.6-0.6-3.4,0-5c0.6-1.5,1.9-2.8,3.4-3.4
			c1.7-0.7,3.6-0.7,5.3,0c1.5,0.7,2.8,1.9,3.4,3.4C99.6,43.4,99.6,45.2,99,46.8z"/>
		<polygon class="st1" points="119.9,38.1 122,38.1 122,50.7 120.2,50.7 113.3,41.8 113.3,50.7 111.1,50.7 111.1,38.1 113.2,38.1 
			119.9,46.7 		"/>
		<polygon class="st1" points="142.9,38.1 145.1,38.1 145.1,50.7 143.4,50.7 136.5,41.8 136.5,50.7 134.2,50.7 134.2,38.1 
			136.3,38.1 143,46.7 		"/>
		<polygon class="st1" points="166.6,40 159.5,40 159.5,43.2 165.8,43.2 165.8,45.2 159.5,45.2 159.5,48.5 166.7,48.5 166.7,50.5 
			157.3,50.5 157.3,38.1 166.6,38.1 		"/>
		<path class="st1" d="M188.1,49.5c-0.7,0.6-1.6,1-2.5,1.2c-0.5,0.1-1,0.1-1.6,0.1c-2.6,0-4.9-1.5-5.8-3.9c-0.3-0.8-0.5-1.7-0.5-2.5
			c0-0.9,0.2-1.7,0.5-2.5c0.3-0.8,0.8-1.5,1.3-2.1c1.2-1.3,3-2,4.7-2c0.5,0,1.1,0,1.6,0.1c0.9,0.2,1.7,0.5,2.4,1
			c0.3,0.2,0.6,0.5,0.9,0.8l-1.4,1.6c-0.5-0.5-1-0.8-1.6-1.1c-0.6-0.3-1.3-0.4-1.9-0.4c-0.5,0-1.1,0.1-1.6,0.3
			c-1,0.5-1.8,1.3-2.2,2.4c-0.2,0.6-0.3,1.1-0.3,1.7c0,0.6,0.1,1.2,0.3,1.8c0.2,0.5,0.5,1,0.9,1.4c0.4,0.4,0.8,0.8,1.3,1
			c0.5,0.2,1,0.3,1.6,0.3c0.7,0,1.4-0.1,2-0.4c0.6-0.3,1.1-0.7,1.6-1.2l1.4,1.4C188.9,48.9,188.5,49.2,188.1,49.5z"/>
		<polygon class="st1" points="205.6,50.6 203.4,50.6 203.4,40.1 199.5,40.1 199.5,38.1 209.7,38.1 209.7,40.1 205.6,40.1 		"/>
		<path class="st0" d="M31.3,44.4L31.3,44.4c-0.1-0.2-0.3-0.4-0.5-0.6l-0.2-0.3c-0.7-0.8-1.6-1.8-2.7-3c-1.5-1.9-2.5-4.1-3-6.5
			c0,0-3,0.5-1,4.3c0.5,0.8,0.9,1.6,1.2,2.5c0.4,1.2-0.3,1.1-0.3,1.1c-1.8-1.1-3.1-2.8-3.9-4.7c-0.6-2-0.6-4.1,0-6.1
			c0.1-0.5,0.1-1-0.1-1.5c-0.1-0.4-0.9-0.7-0.9-0.7c-0.5,0.6-0.9,1.3-1.1,2.1c0.1-0.9,0.4-1.7,0.7-2.5l1.1-0.1h0.3l1.3-0.2
			c0.8-0.2,1.8-0.4,2.9-0.6c2.4-0.3,4.8,0,7.1,0.9c0,0,1.1-2.9-3.2-3.1c-0.7,0-1.5-0.1-2.2-0.3c-1.8-0.3-1.3-0.9-1.3-0.9
			c1.9-0.9,4-1.2,6-0.8c2,0.6,3.8,1.6,5.3,3.1c0.4,0.4,0.8,0.6,1.3,0.7c0.4,0,0.8-0.2,1.1-0.4c-0.3-0.7-0.6-1.3-1.1-1.9
			c0.6,0.6,1.1,1.3,1.6,2c-0.2,0.4-0.4,0.9-0.6,1.5L38.8,29c0,0.2-0.1,0.3-0.2,0.5c-0.2,0.5-0.4,1.1-0.6,1.8c-1,2.2-2.5,4.2-4.4,5.7
			c0,0,1.9,2.4,4.2-1.1c0.3-0.5,0.6-0.9,0.9-1.2c1.6-2.2,1.9-1.2,1.9-1.2c-0.2,2.1-1,4.1-2.4,5.6c-0.8,0.7-1.7,1.4-2.6,1.9
			c-0.9,0.4-1.8,0.8-2.8,1c-0.5,0.1-0.9,0.4-1.2,0.8c-0.1,0.2-0.2,0.3-0.2,0.5c0,0.2,0,0.4,0,0.6c0.7,0.1,1.4,0.1,2.2,0
			C32.9,44.2,32.1,44.3,31.3,44.4z M50.5,35.2l-5.1,0.2c-0.5,0.6-1,1.4-1.6,2c-1,1.1-2,2.2-3.2,3.2c-0.5,0.5-1,0.9-1.6,1.3
			c1-0.9,1.8-1.9,2.6-3l0.6-0.8c0.6-0.8,1.1-1.7,1.6-2.6l0.7-1.2c1.5-3.5,1.2-7.5-0.7-10.8L28.8,0l-8.9,14.7l3.4,4.7
			c0.4,0,2.4,0.1,3.9,0.3c1.5,0.2,2.9,0.5,4.4,0.9l1.9,0.5c-0.4-0.1-0.8-0.2-1.3-0.2c-0.9-0.2-1.8-0.3-2.7-0.3
			c-1.4-0.1-2.8-0.1-4.1,0h-0.2c-0.3,0-0.6,0-0.9,0.1l-0.6,0.1l-0.8,0.1h-0.3c-3.8,0.6-7.1,2.8-9.3,6L0,50.7h18.9l2.5-4.9
			c-0.4-0.7-1-2-1.4-3.2c-0.4-0.9-0.7-1.8-0.9-2.7c0,0,0-0.1,0-0.1c-0.1-0.5-0.3-1-0.4-1.4c-0.2-1-0.4-1.7-0.4-1.9
			c0.4,1.3,0.8,2.5,1.4,3.7c0.4,0.8,0.8,1.6,1.2,2.3c0,0.1,0,0.2,0.1,0.2c0,0.1,0.1,0.3,0.2,0.4c0.3,0.4,0.6,0.8,0.9,1.2
			c0.4,0.6,0.8,1.2,1.2,1.7c1.4,1.7,3.1,3.1,5.1,4c0.6,0.2,1.3,0.4,1.9,0.5h28.8L50.5,35.2z"/>
	</g>
</g>
</svg>
