<svg xmlns="http://www.w3.org/2000/svg" xmlns:xlink="http://www.w3.org/1999/xlink" width="50px" height="51px" viewBox="0 0 50 51"><title>Shape</title><g id="Symbols" stroke="none" stroke-width="1" fill="none" fill-rule="evenodd"><g id="footer" transform="translate(-935.000000, -7.000000)" fill="#02488F"><path d="M960,7 C973.813558,7 985,18.3946758 985,32.4629628 C985,46.5312497 973.813558,57.9259256 960.021185,57.9259256 C958.961865,57.9259256 957.923729,57.8622682 956.864407,57.7349533 C956.186441,57.5439811 955.847458,57.5651989 955.635593,57.4166663 C955.317796,54.4884256 954.830508,52.090665 954.406779,49.5231478 C953.707627,49.5019291 953.792373,49.5443687 952.584745,49.9050923 C952.584745,49.6292439 958.855932,46.9556323 961.631355,44.8761571 C961.90678,44.6851849 961.822035,44.6639641 961.588983,44.3668979 C961.525423,44.2820196 961.7161,44.1547048 961.800847,44.09105 C962.79661,43.3271585 963.665255,42.6693687 963.877118,42.4783945 C964.258475,42.1388886 965.275422,41.4386572 965.381355,40.9718345 C965.868645,39.1469905 970.16949,31.1898146 972.118645,25.8001544 C972.182203,25.5879628 971.864405,25.0150462 971.970338,24.7604165 C972.161015,24.1238425 972.351695,23.5084872 972.457627,22.935571 L973.538137,22.2353401 L973.961865,22.617284 L978.220338,19.986111 C977.711863,18.9251544 977.097458,17.9278552 976.355932,16.9942129 C975.06356,17.8429785 973.792371,18.6917441 972.5,19.5405092 C972.161015,19.7527007 972.754238,20.8560959 972.902543,21.1107255 C972.584745,20.9834107 972.43644,20.7075623 972.309322,20.3256169 L966.059322,24.1874999 L965.805085,24.6331017 L960.466103,28.2615739 C960.06356,27.4340276 957.966102,29.0679014 957.711864,29.3013117 C957.711864,29.3013117 957.161017,29.7681319 957.288136,30.3410496 L957.097458,30.4259258 L956.970339,30.2773922 L956.54661,30.5532406 L957.372882,32.335648 L957.902542,32.0597995 L957.838983,31.9112659 C958.029661,32.0597995 957.987288,32.0597995 958.389831,32.0597995 C958.728813,32.9934429 959.11017,34.6485334 959.343221,37.4918979 C959.491525,39.5925924 953.114407,41.1415884 951.631356,41.5235329 C951.54661,41.5447532 951.631356,40.4625768 951.716102,39.8260032 C951.525423,39.741128 951.355932,39.6138132 951.25,39.4440593 C951.779661,39.528935 953.940678,39.6562498 954.258475,38.4043225 C954.322033,38.1496928 954.216103,38.0860329 954.216103,37.9374998 C954.131357,36.7492273 954.470339,37.2372683 954.406779,36.5582577 C954.322033,36.4733794 954.258475,36.3885037 954.194916,36.2824072 C954.194916,36.1550924 954.385593,35.879245 954.27966,35.5609564 C954.152543,35.115353 953.940678,35.3699827 953.898305,34.6485334 C954.237289,33.8634257 954.216103,34.1817128 954.427965,33.6724535 C954.491525,33.5239179 954.406779,33.4602625 954.237289,33.3966031 C953.283897,32.9297834 953.368643,32.8661281 952.902542,31.52932 C952.627119,30.6381173 952.309322,30.2773922 952.012713,29.6408176 C951.97034,29.5559409 951.01695,29.5559409 950.847458,29.1952157 C951.313559,29.6408176 953.432203,28.685957 953.15678,27.8371909 C952.627119,28.0281631 952.097458,28.0918205 951.737288,27.8371909 C952.118645,27.2430554 952.605932,26.6064813 952.79661,25.566744 C950.29661,27.0520832 948.728814,26.3942898 945.911017,27.1369604 C944.597458,27.497685 943.389831,28.1766967 942.372881,29.0891202 C942.288135,29.1739969 942.224576,29.6620369 942.245762,30.0227615 C941.991525,29.5135028 942.20339,28.6010808 942.309322,28.1342591 C941.673729,28.9193673 941.25,29.8530091 941.080508,30.8503083 C939.936441,33.0146586 939.978814,35.5609564 941.228814,37.3433653 C943.432204,40.4625768 945.487288,39.0621153 946.355932,40.7384257 C946.038135,41.0142741 946.038135,41.2052484 945.572034,41.3749998 C945.487288,41.396218 944.088984,41.7145076 943.559323,42.1601095 C943.177966,42.4783945 942.690678,42.5420539 942.542373,43.8364209 C941.716102,44.2820196 940.911017,44.7488423 940.805085,44.8124997 C938.771186,45.9795539 939.809322,47.2102604 940.466102,48.3985354 C936.949152,43.8788595 935,38.2557868 935,32.4629628 C935,18.3946758 946.186441,7 960,7 Z M971.313561,23.6782414 C970.847459,24.7179792 970.381357,25.757717 970.148307,25.6940593 C969.957629,25.651621 969.894069,25.163581 969.809324,24.6755408 C969.788137,24.4633495 969.682205,24.2723772 969.5339,24.1450624 L970.084747,24.4845686 L971.313561,23.6782414 Z M969.194915,25.0574847 C969.173729,25.9699076 968.474576,26.8186731 969.04661,27.8584109 C969.34322,28.4313273 965.021186,34.096837 963.09322,36.7916673 C963.008474,36.9189823 963.68644,39.2530866 963.580508,39.3379638 C963.474576,39.422839 960.656779,32.2507719 960.275424,31.2322536 C960.211864,31.1049389 960.487288,30.5956793 960.423729,30.4471457 L960.508474,30.2561732 L966.779661,26.3518521 L966.991525,26.4367285 L968.135593,25.736497 L969.194915,25.0574847 Z" id="Shape"></path></g></g></svg>