<svg xmlns="http://www.w3.org/2000/svg" viewBox="0 0 182 25.32"><defs><style>.cls-1,.cls-4{fill:#05f;}.cls-1,.cls-2{fill-rule:evenodd;}.cls-2,.cls-3{fill:#24292f;}</style></defs><g id="Layer_2" data-name="Layer 2"><g id="Layer_1-2" data-name="Layer 1"><path id="Shape" class="cls-1" d="M19.19,1.11,21.86,4.8a2.54,2.54,0,0,1,0,3h0a2.45,2.45,0,0,1-3.49.5,4.9,4.9,0,0,1-.51-.5l-.65-.88-2.66,3.64L8.29,19.11,4.56,24.27a2.5,2.5,0,0,1-2,1.05A2.55,2.55,0,0,1,0,22.79a3.35,3.35,0,0,1,.51-1.52L15.14,1.16A2.57,2.57,0,0,1,18.78.75a1.34,1.34,0,0,1,.41.36Z"/><path id="Shape-2" data-name="Shape" class="cls-1" d="M33.28,24.77a2.6,2.6,0,0,1-3.5-.5l-2.67-3.69a2.57,2.57,0,0,1,0-3h0a2.46,2.46,0,0,1,3.5-.5,2.43,2.43,0,0,1,.51.5l2.71,3.64a2.6,2.6,0,0,1-.55,3.54Z"/><path id="Shape-3" data-name="Shape" class="cls-2" d="M4.56,1.11,7.23,4.75a2.57,2.57,0,0,1,0,3h0a2.46,2.46,0,0,1-3.5.51,2.72,2.72,0,0,1-.51-.51L.55,4.06A2.55,2.55,0,0,1,1,.51,2.49,2.49,0,0,1,4.46,1s.1.09.1.13Z"/><path id="Shape-4" data-name="Shape" class="cls-2" d="M33.83,4.11l-4.74,6.44-6.17,8.51-3.73,5.16a2.61,2.61,0,0,1-2,1.06,2.47,2.47,0,0,1-2-1.06l-2.67-3.68a2.54,2.54,0,0,1,0-3h0A2.44,2.44,0,0,1,16.06,17a4.87,4.87,0,0,1,.51.51l.64.87,2.67-3.68,6.17-8.47,3.78-5.16A2.5,2.5,0,0,1,33.28.47,2.6,2.6,0,0,1,33.92,4a.13.13,0,0,0-.09.14Z"/><path class="cls-3" d="M67.16,2.26a1.39,1.39,0,0,1,1.56,1.57l.88,21H65.68L64.9,5.53h-.64L60,20.68A1.53,1.53,0,0,1,58.37,22h-2.9a1.65,1.65,0,0,1-1.75-1.33L49.48,5.53h-.64L48.1,24.86H44.19l.87-21c0-1.06.56-1.57,1.57-1.57h4.09A1.59,1.59,0,0,1,52.38,3.6L55.83,16c.14.51.28,1.06.37,1.57s.23,1.05.32,1.56H57c.14-.51.23-1.06.37-1.56s.23-1.06.37-1.62L61.22,3.6a1.54,1.54,0,0,1,1.66-1.34Z"/><path class="cls-3" d="M81.1,8.39c2.58,0,4.47.46,5.62,1.38a5,5,0,0,1,1.75,4,4.71,4.71,0,0,1-1,3.32A4.72,4.72,0,0,1,84,18.24H74.8V15.8h8.1c.74,0,1.2-.19,1.43-.6a3.54,3.54,0,0,0,.32-1.43,2.24,2.24,0,0,0-.78-1.89,4.46,4.46,0,0,0-2.49-.5,5.68,5.68,0,0,0-2.39.41,2.39,2.39,0,0,0-1.2,1.52,11.57,11.57,0,0,0-.32,3.22A11.6,11.6,0,0,0,77.88,20a2.49,2.49,0,0,0,1.43,1.65,6.62,6.62,0,0,0,2.62.46c.83,0,1.75,0,2.81-.09s2.07-.14,3.08-.28l.42,2.54a17.09,17.09,0,0,1-2,.59,20.23,20.23,0,0,1-2.39.33,20.88,20.88,0,0,1-2.3.09,10.58,10.58,0,0,1-4.74-.88,5.1,5.1,0,0,1-2.58-2.71,12.11,12.11,0,0,1-.78-4.83,13.4,13.4,0,0,1,.78-5,4.9,4.9,0,0,1,2.53-2.63A9,9,0,0,1,81.1,8.39Z"/><path class="cls-3" d="M102.09,8.75v2.77H90.49V8.94l3.13-.19ZM97.31,4.2V20a1.81,1.81,0,0,0,.46,1.43,2.14,2.14,0,0,0,1.52.46h2.2l.42,2.76a9.18,9.18,0,0,1-1.34.28c-.5.09-1,.13-1.51.18a12.49,12.49,0,0,1-1.29.05A4.44,4.44,0,0,1,94.5,24a4.32,4.32,0,0,1-1.15-3.27V4.2Z"/><path class="cls-3" d="M117.37,15l0,2.44H110a1.91,1.91,0,0,0-1.42.5,2,2,0,0,0-.42,1.34v.87a2.07,2.07,0,0,0,.51,1.48,2.38,2.38,0,0,0,1.66.5,6.61,6.61,0,0,0,2-.32,9.31,9.31,0,0,0,2.16-1,10.69,10.69,0,0,0,1.93-1.66v2.07a9.23,9.23,0,0,1-1,1.15,12.17,12.17,0,0,1-1.52,1.34,9.14,9.14,0,0,1-2.07,1.06,7.8,7.8,0,0,1-2.58.41,6.32,6.32,0,0,1-2.58-.51,3.67,3.67,0,0,1-1.8-1.51,4.6,4.6,0,0,1-.64-2.49v-1.7A3.6,3.6,0,0,1,105.45,16a5.26,5.26,0,0,1,3.46-1.06h8.46Zm-4.28-6.58a9.61,9.61,0,0,1,3.27.5,3.85,3.85,0,0,1,2,1.71,6.87,6.87,0,0,1,.69,3.36v10.9H116l-.55-3.45-.28-.46v-7a2.38,2.38,0,0,0-.6-1.84,3.4,3.4,0,0,0-2.25-.55c-.83,0-1.89,0-3.13.09s-2.54.14-3.78.27L105,9.17c.79-.14,1.61-.28,2.58-.42l2.9-.27C111.44,8.39,112.31,8.39,113.09,8.39Z"/><path class="cls-4" d="M132.29,1.8a15.14,15.14,0,0,1,4.42.56,5.79,5.79,0,0,1,2.9,1.93,8.37,8.37,0,0,1,1.56,3.59,27.72,27.72,0,0,1,.51,5.62,27.68,27.68,0,0,1-.51,5.61,9.12,9.12,0,0,1-1.56,3.64,6.51,6.51,0,0,1-2.9,1.93,15.17,15.17,0,0,1-4.42.55,15,15,0,0,1-4.37-.55,5.76,5.76,0,0,1-2.9-1.93,8.4,8.4,0,0,1-1.62-3.64,27.76,27.76,0,0,1-.5-5.61,27.09,27.09,0,0,1,.5-5.62A8.14,8.14,0,0,1,125,4.29a6.32,6.32,0,0,1,2.9-1.93A16.47,16.47,0,0,1,132.29,1.8Zm0,3.36a5.28,5.28,0,0,0-3,.79,4.3,4.3,0,0,0-1.56,2.57,20.25,20.25,0,0,0-.46,5,20.25,20.25,0,0,0,.46,5,4.33,4.33,0,0,0,1.56,2.58,5.36,5.36,0,0,0,3,.78,5.47,5.47,0,0,0,3.08-.78,4.34,4.34,0,0,0,1.57-2.58,20.75,20.75,0,0,0,.46-5,20.75,20.75,0,0,0-.46-5A4.31,4.31,0,0,0,135.37,6,5.13,5.13,0,0,0,132.29,5.16Z"/><path class="cls-4" d="M154.2,1.94a14,14,0,0,1,4.69.65,4.11,4.11,0,0,1,2.44,2.21,10.22,10.22,0,0,1,.74,4.41,11.38,11.38,0,0,1-.69,4.42A4,4,0,0,1,159,15.84a12.11,12.11,0,0,1-4.33.65c-1,0-1.93,0-2.85-.09a20.59,20.59,0,0,1-2.53-.28c-.78-.09-1.43-.23-2-.32a9.21,9.21,0,0,1-1.15-.33l.09-2.2h7.83a5.88,5.88,0,0,0,2.25-.37,2.06,2.06,0,0,0,1.2-1.2,7.08,7.08,0,0,0,.32-2.49,7.24,7.24,0,0,0-.32-2.48,2.06,2.06,0,0,0-1.2-1.2,6.13,6.13,0,0,0-2.25-.32c-1.94,0-3.59,0-4.93,0s-2.3,0-2.81.09l-.46-3c.88-.09,1.71-.14,2.49-.18S150,2,150.93,2,152.91,1.94,154.2,1.94ZM150,2.26v22.6h-4.1V2.26Z"/><path class="cls-4" d="M182,2.26V5.62H163.91V2.26Zm-7,0v22.6h-4.09V2.26Z"/></g></g></svg>