<svg xmlns="http://www.w3.org/2000/svg" viewBox="0 0 86.23 20.08"><defs><style>.cls-1{isolation:isolate;opacity:0.2;}.cls-2{fill:#ff4000;}.cls-3{fill:#31303a;}</style></defs><g id="Layer_2" data-name="Layer 2"><g id="Layer_1-2" data-name="Layer 1"><g id="Layer_2-2" data-name="Layer 2"><g id="Layer_1-2-2" data-name="Layer 1-2"><path class="cls-1" d="M85.29,11.46a4.56,4.56,0,0,1-1.36,3.09,4.86,4.86,0,0,1-3.16,1.35,5.17,5.17,0,0,1-3.4-1,5.52,5.52,0,0,1-2-3.29,5.69,5.69,0,0,1,.62-4,5.34,5.34,0,0,1,3-2.44,5.12,5.12,0,0,1,3.69.25,5.83,5.83,0,0,1,2.86,3.27L85,8.9l-.51.26c-.61.29-1.21.57-1.82.84l-1.17.51-.59.26-.17.07h0S83.75,8,83.55,8l-.16-.12h0A3.5,3.5,0,0,0,82,7.2a3.64,3.64,0,0,0-.72-.13h-.67a3.45,3.45,0,0,0-1,.22,3.6,3.6,0,0,0-1.83,1.5,3.49,3.49,0,0,0-.5,2.36,4,4,0,0,0,6.17,2.75,3.5,3.5,0,0,0,.49-.37A4.68,4.68,0,0,0,85.29,11.46Z"/><path class="cls-2" d="M86,11.46a4.84,4.84,0,0,1-1.53,3.34,5.63,5.63,0,0,1-3.56,1.49,6,6,0,0,1-6.13-4.72,5.84,5.84,0,0,1,.71-4.32A6,6,0,0,1,83,4.9a6.36,6.36,0,0,1,3.22,3.52l-.59.25c-.19.09-.39.19-.58.26l-2,.91-1.33.56-.72.3-.34.14h0l2.9-2.94a3.69,3.69,0,0,0-2.88-1.15A3.56,3.56,0,0,0,79.57,7a4.11,4.11,0,0,0-2,1.61A3.65,3.65,0,0,0,77,11.13a4.19,4.19,0,0,0,1.3,2.43,4.73,4.73,0,0,0,5.64.53,4.29,4.29,0,0,0,.55-.4A4.88,4.88,0,0,0,86,11.46Z"/><path class="cls-1" d="M83.9,14.09a4.29,4.29,0,0,0,.55-.4A4.7,4.7,0,0,1,81,15.12a4.4,4.4,0,0,1-4.55-4.22,4.37,4.37,0,0,1,4.23-4.19,4.2,4.2,0,0,0-3.18,1.87A3.69,3.69,0,0,0,77,11.13a4.19,4.19,0,0,0,1.3,2.43,4.73,4.73,0,0,0,5.64.53Z"/><path class="cls-3" d="M19.07,19.52a1.07,1.07,0,0,1-.19.28.88.88,0,0,1-.29.18,1,1,0,0,1-.38.07h-.67V18.29h.67a1.21,1.21,0,0,1,.38.06,1,1,0,0,1,.29.19.92.92,0,0,1,.19.28,1,1,0,0,1,.06.34h0A1.13,1.13,0,0,1,19.07,19.52Zm-.33-.35a.81.81,0,0,0,0-.22.46.46,0,0,0-.11-.16.42.42,0,0,0-.16-.11.41.41,0,0,0-.22,0H18v1h.29a.81.81,0,0,0,.22,0,.36.36,0,0,0,.16-.11.91.91,0,0,0,.11-.16.81.81,0,0,0,0-.22Z"/><path class="cls-3" d="M19.61,20.05V18.29H20v1.76Z"/><path class="cls-3" d="M21.75,19.76a.37.37,0,0,1-.13.17.56.56,0,0,1-.2.11,1,1,0,0,1-.25,0,1,1,0,0,1-.39-.07.84.84,0,0,1-.35-.21l.23-.27a1.1,1.1,0,0,0,.26.15.6.6,0,0,0,.27.06.28.28,0,0,0,.18,0,.19.19,0,0,0,.07-.12h0a.17.17,0,0,0-.07-.13h-.11a.58.58,0,0,0-.17-.06l-.24-.07a.52.52,0,0,1-.18-.1.44.44,0,0,1-.12-.15.41.41,0,0,1,0-.22h0a.5.5,0,0,1,.05-.21.48.48,0,0,1,.31-.28.57.57,0,0,1,.26,0,1,1,0,0,1,.35.06,1.22,1.22,0,0,1,.29.17l-.22.29a1,1,0,0,0-.23-.13.59.59,0,0,0-.22-.05.26.26,0,0,0-.17.05.12.12,0,0,0,0,.1h0a.11.11,0,0,0,0,.08L21,19h.12l.18.06a.9.9,0,0,1,.23.08.81.81,0,0,1,.18.1.4.4,0,0,1,.1.15.67.67,0,0,1,0,.2h0A.58.58,0,0,1,21.75,19.76Z"/><path class="cls-3" d="M23,18.64v1.41h-.38V18.64h-.52v-.35h1.44v.35Z"/><path class="cls-3" d="M25,20.05l-.37-.56h-.31v.56H24V18.29h.79a.71.71,0,0,1,.48.15.54.54,0,0,1,.17.43h0a.62.62,0,0,1-.1.35.53.53,0,0,1-.26.19l.43.63Zm0-1.15a.27.27,0,0,0-.08-.19.29.29,0,0,0-.22-.06h-.38v.51h.39a.28.28,0,0,0,.21-.07A.27.27,0,0,0,25,18.9Z"/><path class="cls-3" d="M25.91,20.05V18.29h.38v1.76Z"/><path class="cls-3" d="M28.26,19.78a.47.47,0,0,1-.13.15.72.72,0,0,1-.2.09,1.13,1.13,0,0,1-.26,0h-.82V18.29h.8a.63.63,0,0,1,.42.12.41.41,0,0,1,.15.33h0a.33.33,0,0,1,0,.14.31.31,0,0,1,0,.1.27.27,0,0,1-.07.08.16.16,0,0,1-.08.06.6.6,0,0,1,.23.16.47.47,0,0,1,.09.28h0A.58.58,0,0,1,28.26,19.78Zm-.42-1a.18.18,0,0,0-.06-.14.31.31,0,0,0-.19,0h-.38V19h.35a.35.35,0,0,0,.2-.05.16.16,0,0,0,.08-.14Zm.09.7a.18.18,0,0,0-.06-.14.41.41,0,0,0-.22,0h-.44v.39h.45a.34.34,0,0,0,.2,0,.13.13,0,0,0,.07-.14Z"/><path class="cls-3" d="M30.18,19.63a.59.59,0,0,1-.17.27.51.51,0,0,1-.23.15h-.31a.75.75,0,0,1-.55-.2.76.76,0,0,1-.22-.57v-1h.38v1a.47.47,0,0,0,.1.32.33.33,0,0,0,.28.11.34.34,0,0,0,.27-.1.47.47,0,0,0,.1-.32v-1h.38v1A2,2,0,0,1,30.18,19.63Z"/><path class="cls-3" d="M31.53,18.64v1.41h-.38V18.64h-.53v-.35H32v.35Z"/><path class="cls-3" d="M32.48,20.05V18.29h.38v1.76Z"/><path class="cls-3" d="M35.12,19.52a.81.81,0,0,1-.19.29.84.84,0,0,1-.29.2,1,1,0,0,1-.37.07A.94.94,0,0,1,33.9,20a.87.87,0,0,1-.48-.48,1.15,1.15,0,0,1-.07-.36h0a.84.84,0,0,1,.07-.35.81.81,0,0,1,.19-.29,1.15,1.15,0,0,1,.29-.2,1,1,0,0,1,1,.2.92.92,0,0,1,.19.28.89.89,0,0,1,.07.36h0A.82.82,0,0,1,35.12,19.52Zm-.33-.35a.81.81,0,0,0,0-.22,1,1,0,0,0-.11-.17.66.66,0,0,0-.17-.12.54.54,0,0,0-.21-.05.5.5,0,0,0-.21.05.28.28,0,0,0-.16.12.39.39,0,0,0-.11.17.37.37,0,0,0,0,.21h0a.41.41,0,0,0,0,.22.45.45,0,0,0,.11.17.48.48,0,0,0,.37.17.54.54,0,0,0,.21,0,.3.3,0,0,0,.17-.12.62.62,0,0,0,.11-.17A.74.74,0,0,0,34.79,19.17Z"/><path class="cls-3" d="M36.86,20.05,36,18.9V20h-.38V18.29H36l.81,1.08V18.29h.37v1.76Z"/><path class="cls-3" d="M40,19.9l-.15.1-.19.06h-.23a.84.84,0,0,1-.35-.07.92.92,0,0,1-.28-.19,1.32,1.32,0,0,1-.19-.29.92.92,0,0,1-.07-.36h0a.9.9,0,0,1,.55-.84.86.86,0,0,1,.36-.07h.22a.64.64,0,0,1,.18.06.55.55,0,0,1,.15.08l.13.11-.24.29a.8.8,0,0,0-.21-.15.59.59,0,0,0-.23-.05.34.34,0,0,0-.2,0,.48.48,0,0,0-.16.12.45.45,0,0,0-.11.17.81.81,0,0,0,0,.22h0a.74.74,0,0,0,0,.21.42.42,0,0,0,.11.18.44.44,0,0,0,.15.12h.21a.45.45,0,0,0,.25-.05l.21-.15.24.25A1.28,1.28,0,0,1,40,19.9Z"/><path class="cls-3" d="M40.53,20.05V18.29h1.3v.34h-.92V19h.81v.34h-.81v.37h.93v.35Z"/><path class="cls-3" d="M43.52,20.05l-.84-1.15V20H42.3V18.29h.35l.81,1.08V18.29h.38v1.76Z"/><path class="cls-3" d="M45.17,18.64v1.41h-.38V18.64h-.53v-.35h1.43v.35Z"/><path class="cls-3" d="M46.11,20.05V18.29h1.3v.34h-.92V19h.81v.34h-.81v.37h.94v.35Z"/><path class="cls-3" d="M48.94,20.05l-.38-.56h-.29v.56h-.38V18.29h.79a.71.71,0,0,1,.48.15.54.54,0,0,1,.17.43h0a.62.62,0,0,1-.1.35.7.7,0,0,1-.26.19l.42.63Zm0-1.16a.27.27,0,0,0-.08-.19.29.29,0,0,0-.22-.06h-.38v.51h.38a.29.29,0,0,0,.22-.07.25.25,0,0,0,.08-.18Z"/><path class="cls-3" d="M52.35,19.52a.81.81,0,0,1-.19.29.84.84,0,0,1-.29.2,1,1,0,0,1-.74,0,1,1,0,0,1-.29-.2,1.07,1.07,0,0,1-.19-.28,1.15,1.15,0,0,1-.07-.36h0a.84.84,0,0,1,.07-.35.92.92,0,0,1,1.2-.5h0a1.15,1.15,0,0,1,.29.2.92.92,0,0,1,.19.28,1.44,1.44,0,0,1,.07.36h0A.84.84,0,0,1,52.35,19.52ZM52,19.17A.81.81,0,0,0,52,19a1,1,0,0,0-.11-.17.66.66,0,0,0-.17-.12.54.54,0,0,0-.21-.05.48.48,0,0,0-.37.17A.45.45,0,0,0,51,19a.74.74,0,0,0,0,.21h0a.81.81,0,0,0,0,.22.45.45,0,0,0,.11.17.52.52,0,0,0,.17.12.46.46,0,0,0,.21,0,.54.54,0,0,0,.21,0,.31.31,0,0,0,.16-.12,1,1,0,0,0,.11-.17A.74.74,0,0,0,52,19.17Z"/><path class="cls-3" d="M54.2,19.17a1,1,0,0,1-.15.2.65.65,0,0,1-.22.11h-.56V20h-.38V18.29h.7a.61.61,0,0,1,.27,0,.57.57,0,0,1,.21.13.43.43,0,0,1,.13.19.75.75,0,0,1,0,.26h0A1,1,0,0,1,54.2,19.17Zm-.33-.27a.27.27,0,0,0-.08-.19.33.33,0,0,0-.23-.07h-.29v.54h.3a.35.35,0,0,0,.22-.08.27.27,0,0,0,.08-.19Z"/><path class="cls-3" d="M54.66,20.05V18.29H56v.34H55V19h.81v.34H55v.37h1v.35Z"/><path class="cls-3" d="M57.49,20.05l-.37-.56h-.3v.56h-.38V18.29h.79a.71.71,0,0,1,.48.15.54.54,0,0,1,.17.43h0a.62.62,0,0,1-.1.35.7.7,0,0,1-.26.19l.42.63Zm0-1.16a.27.27,0,0,0-.08-.19.29.29,0,0,0-.22-.06h-.37v.51h.38a.29.29,0,0,0,.22-.07.21.21,0,0,0,.07-.18Z"/><path class="cls-3" d="M59.64,20.05l-.16-.4h-.73l-.16.4H58.2l.74-1.77h.35L60,20.05Zm-.52-1.31-.23.57h.46Z"/><path class="cls-3" d="M61.21,18.64v1.41h-.38V18.64h-.52v-.35h1.44v.35Z"/><path class="cls-3" d="M62.16,20.05V18.29h.38v1.76Z"/><path class="cls-3" d="M64.79,19.52a.79.79,0,0,1-.18.29.84.84,0,0,1-.29.2,1,1,0,0,1-.74,0,1,1,0,0,1-.29-.2,1.07,1.07,0,0,1-.19-.28,1.15,1.15,0,0,1-.07-.36h0a.84.84,0,0,1,.07-.35.94.94,0,0,1,.86-.56.92.92,0,0,1,.36.07,1.15,1.15,0,0,1,.29.2.92.92,0,0,1,.19.28.89.89,0,0,1,.07.36h0A.85.85,0,0,1,64.79,19.52Zm-.33-.35a.81.81,0,0,0,0-.22,1,1,0,0,0-.11-.17.66.66,0,0,0-.17-.12.54.54,0,0,0-.21-.05.51.51,0,0,0-.48.34.74.74,0,0,0,0,.21h0a.81.81,0,0,0,0,.22.53.53,0,0,0,.28.29.46.46,0,0,0,.21,0,.54.54,0,0,0,.21,0,.31.31,0,0,0,.16-.12,1,1,0,0,0,.11-.17A.74.74,0,0,0,64.46,19.17Z"/><path class="cls-3" d="M66.54,20.05,65.7,18.9V20h-.38V18.29h.35l.82,1.08V18.29h.37v1.76Z"/><path class="cls-3" d="M68.6,19.76a.37.37,0,0,1-.13.17.56.56,0,0,1-.2.11A1,1,0,0,1,68,20a1,1,0,0,1-.39-.07.84.84,0,0,1-.35-.21l.23-.27a1,1,0,0,0,.24.15.6.6,0,0,0,.27.06.31.31,0,0,0,.19,0,.19.19,0,0,0,.07-.12h0a.17.17,0,0,0-.07-.13H68.1a.64.64,0,0,0-.18-.06l-.23-.07a.52.52,0,0,1-.18-.1.44.44,0,0,1-.12-.15.41.41,0,0,1,0-.22h0a.37.37,0,0,1,0-.21.43.43,0,0,1,.13-.17.45.45,0,0,1,.19-.11H68a1,1,0,0,1,.35.06,1.22,1.22,0,0,1,.29.17l-.2.29a1,1,0,0,0-.23-.13.59.59,0,0,0-.22-.05.28.28,0,0,0-.16.05.1.1,0,0,0-.06.11h0a.09.09,0,0,0,0,.07.09.09,0,0,0,.06.06l.11.05.18.05.24.08a.62.62,0,0,1,.17.11.38.38,0,0,1,.11.14.67.67,0,0,1,0,.2h0A.61.61,0,0,1,68.6,19.76Z"/><path class="cls-3" d="M11.69,10.32a5.62,5.62,0,0,1-5.35,5.86,4.34,4.34,0,0,1-.51,0A5.56,5.56,0,0,1,0,10.87a5,5,0,0,1,0-.55A5.62,5.62,0,0,1,5.36,4.44a3.68,3.68,0,0,1,.47,0,5.66,5.66,0,0,1,5.86,5.45Zm-9.32,0A3.41,3.41,0,0,0,5.52,14h.31a3.43,3.43,0,0,0,3.48-3.39,2.43,2.43,0,0,0,0-.27A3.54,3.54,0,0,0,6,6.62H5.83a3.45,3.45,0,0,0-3.47,3.45A2.09,2.09,0,0,0,2.37,10.32Z"/><path class="cls-3" d="M13.27,20.05V4.68H15.5l.13,1.83a4.69,4.69,0,0,1,4-2,5.56,5.56,0,0,1,5.7,5.43,3.38,3.38,0,0,1,0,.45c0,3.41-2.19,5.88-5.7,5.88a4.68,4.68,0,0,1-4-1.9v5.75ZM23,10.32a3.39,3.39,0,0,0-3.18-3.59,2.54,2.54,0,0,0-.39,0,3.43,3.43,0,0,0-3.55,3.32,1.22,1.22,0,0,0,0,.27,3.48,3.48,0,0,0,3.34,3.58h.16A3.46,3.46,0,0,0,23,10.63Z"/><path class="cls-3" d="M30.43,1.42V4.69h3.3v2H30.41v5.39c0,1.19.51,1.85,1.62,1.85a3.38,3.38,0,0,0,1.45-.39l.69,2a5.57,5.57,0,0,1-2.27.51c-2.45.07-3.85-1.33-3.85-4V6.73H25.87v-2H28v-3Z"/><path class="cls-2" d="M37.85,1.35a1.47,1.47,0,0,1-2.93,0,1.47,1.47,0,0,1,2.93,0Z"/><rect class="cls-3" x="35.2" y="4.62" width="2.36" height="11.32"/><path class="cls-3" d="M47.57,16V9.75c0-1.67-1-3.07-2.64-3.07A2.82,2.82,0,0,0,42.2,9.59a.92.92,0,0,0,0,.16V16H39.85V4.65H42l.16,1.51a3.43,3.43,0,0,1,3.16-1.7,3.56,3.56,0,0,1,3.55,2.27,4.12,4.12,0,0,1,3.87-2.24c3.12,0,4.79,2,4.79,5.21V16H55.2V9.7c0-1.67-.83-3-2.5-3a2.82,2.82,0,0,0-2.76,2.88,1,1,0,0,0,0,.17V16Z"/><path class="cls-2" d="M62.36,1.35a1.47,1.47,0,0,1-2.93,0,1.47,1.47,0,0,1,2.93,0Z"/><rect class="cls-3" x="59.71" y="4.62" width="2.36" height="11.32"/><path class="cls-3" d="M64,6.75V4.62h9.54V6.4L67,13.82h6.5V16H63.76V14.17l6.49-7.42Z"/></g></g></g></g></svg>