<?xml version="1.0" encoding="utf-8"?>
<!-- Generator: Adobe Illustrator 24.3.0, SVG Export Plug-In . SVG Version: 6.00 Build 0)  -->
<svg version="1.1" id="Layer_1" xmlns="http://www.w3.org/2000/svg" xmlns:xlink="http://www.w3.org/1999/xlink" x="0px" y="0px"
	 viewBox="0 0 369.9 103.4" style="enable-background:new 0 0 369.9 103.4;" xml:space="preserve">
<style type="text/css">
	.st0{fill:url(#Fill-1_76_1_);}
	.st1{opacity:0.8953;fill:#00BE68;enable-background:new    ;}
	.st2{fill:#00BE68;}
	.st3{fill:#161F3B;}
	.st4{fill:url(#Fill-24_80_1_);}
</style>
<linearGradient id="Fill-1_76_1_" gradientUnits="userSpaceOnUse" x1="64.2328" y1="71.8913" x2="-5.6286" y2="35.2972" gradientTransform="matrix(1 0 0 -1 0 106)">
	<stop  offset="0" style="stop-color:#00BE68"/>
	<stop  offset="1" style="stop-color:#007C44"/>
</linearGradient>
<path id="Fill-1_76" class="st0" d="M1.5,49.3v30.6l42.1-17.5C58.8,56,59,47.4,59,35.4l0,0v-9.9L1.5,49.3z"/>
<path id="Fill-3_77" class="st1" d="M59,103.4L1.5,79.6V49l42.1,17.6C58.8,73,59,81.6,59,93.6V103.4z"/>
<path id="Fill-5_78" class="st2" d="M22,40.9L17.4,39l-2.9-1.2C3.4,33.8,0,23.9,0,12.4V0l59.2,25.5L22,40.9z"/>
<path id="Fill-16_79" class="st3" d="M369.6,75c-0.1,0.1-0.3,0.2-0.4,0.2h-13.7v9.3h9c0.2,0,0.3,0,0.4,0.2c0.1,0.1,0.2,0.3,0.2,0.4
	v1.2c0,0.2,0,0.3-0.2,0.4c-0.1,0.1-0.3,0.2-0.4,0.2h-9v9.3h13.8c0.2,0,0.3,0.1,0.4,0.2s0.2,0.3,0.2,0.4V98c0,0.3-0.2,0.6-0.5,0.6
	c0,0,0,0-0.1,0h-15.5c-0.3,0-0.6-0.2-0.6-0.5c0,0,0,0,0-0.1V73.4c0-0.2,0.1-0.3,0.2-0.4s0.3-0.2,0.4-0.2h15.5c0.2,0,0.3,0,0.4,0.2
	c0.1,0.1,0.2,0.3,0.2,0.4v1.2C369.8,74.7,369.7,74.9,369.6,75z M318.1,73c0.1-0.1,0.3-0.2,0.4-0.2h15.6c0.2,0,0.3,0.1,0.4,0.2
	s0.2,0.3,0.2,0.4v1.2c0,0.2,0,0.3-0.2,0.4c-0.1,0.1-0.3,0.2-0.4,0.2h-6.6v22.7c0,0.2,0,0.3-0.2,0.4c-0.1,0.1-0.3,0.2-0.4,0.2h-1.2
	c-0.2,0-0.3-0.1-0.4-0.2s-0.2-0.3-0.1-0.4V75.2h-6.6c-0.2,0-0.3-0.1-0.5-0.2c-0.1-0.1-0.2-0.3-0.2-0.4v-1.2
	C317.9,73.2,318,73.1,318.1,73z M299.6,75c-0.1,0.1-0.3,0.2-0.4,0.2h-13.8v9.3h9c0.2,0,0.3,0,0.4,0.2c0.1,0.1,0.2,0.3,0.2,0.4v1.2
	c0,0.3-0.2,0.6-0.5,0.6c0,0,0,0-0.1,0h-9v9.3h13.8c0.2,0,0.3,0,0.4,0.2c0.1,0.1,0.2,0.3,0.2,0.4V98c0,0.3-0.2,0.6-0.5,0.6
	c0,0,0,0-0.1,0h-15.5c-0.3,0-0.6-0.2-0.6-0.5c0,0,0,0,0-0.1V73.4c0-0.3,0.2-0.6,0.5-0.6l0,0h15.5c0.2,0,0.3,0,0.4,0.2
	c0.1,0.1,0.2,0.3,0.2,0.4v1.2C299.8,74.7,299.7,74.9,299.6,75z M250.6,98.5c-0.2,0-0.3-0.1-0.4-0.2c-0.1-0.1-0.2-0.3-0.2-0.4V73.3
	c0-0.2,0.1-0.3,0.2-0.4c0.1-0.1,0.3-0.2,0.4-0.2h1.2c0.2,0,0.3,0,0.4,0.2c0.1,0.1,0.2,0.3,0.2,0.4v22.8h11.3c0.2,0,0.3,0,0.4,0.2
	c0.1,0.1,0.2,0.3,0.2,0.4v1.2c0,0.2-0.1,0.3-0.2,0.4s-0.3,0.2-0.5,0.2H250.6z M212.8,72.9c0.1-0.1,0.3-0.2,0.4-0.2h8.9
	c0.9,0,1.8,0.2,2.7,0.5c1.7,0.8,3,2.1,3.8,3.8c1.1,2.7,0.5,5.7-1.5,7.8c-0.7,0.7-1.5,1.2-2.3,1.6c-0.9,0.4-1.8,0.5-2.8,0.5h-7v11
	c0,0.2,0,0.3-0.1,0.4s-0.3,0.2-0.4,0.2h-1.1c-0.3,0-0.6-0.2-0.6-0.5c0,0,0,0,0-0.1V73.3C212.6,73.2,212.7,73,212.8,72.9L212.8,72.9z
	 M215,75.1v9.5h7.2c0.6,0,1.2-0.1,1.8-0.3c0.6-0.2,1.1-0.6,1.5-1s0.8-1,1-1.5c0.7-1.8,0.3-3.8-1-5.2c-0.9-0.9-2.1-1.4-3.3-1.4
	L215,75.1z M170.9,73l9.2,10.4l9.2-10.4c0-0.1,0.1-0.1,0.2-0.2c0.1,0,0.2,0,0.2-0.1h0.1c0.2,0,0.3,0.1,0.4,0.2
	c0.1,0.1,0.2,0.3,0.2,0.4v24.5c0,0.2-0.1,0.3-0.2,0.4c-0.1,0.1-0.3,0.2-0.4,0.2h-1.1c-0.2,0-0.3-0.1-0.4-0.2
	c-0.1-0.1-0.2-0.3-0.2-0.4v-20l-7.6,8.5c-0.1,0.1-0.3,0.2-0.4,0.2c-0.2,0-0.3-0.1-0.4-0.2l-7.6-8.5v20c0,0.2,0,0.3-0.1,0.4
	s-0.3,0.2-0.4,0.2h-1.2c-0.2,0-0.3-0.1-0.4-0.2c-0.1-0.1-0.2-0.3-0.2-0.4V73.4c0-0.2,0.1-0.3,0.2-0.4c0.1-0.1,0.3-0.2,0.4-0.2h0.1
	c0.1,0,0.2,0,0.2,0.1C170.8,72.9,170.9,73,170.9,73z M136.9,98.5c-1.7,0-3.4-0.3-5-1c-0.7-0.3-1.5-0.7-2.1-1.2
	c-0.7-0.5-1.3-1-1.9-1.6s-1.1-1.2-1.6-1.9c-0.9-1.4-1.6-3-1.9-4.6c-0.3-1.7-0.3-3.4,0-5.1c0.2-0.8,0.4-1.7,0.8-2.4
	c0.3-0.8,0.7-1.5,1.2-2.2s1-1.3,1.6-1.9c0.6-0.6,1.2-1.1,1.9-1.6s1.4-0.9,2.1-1.2c0.8-0.3,1.6-0.6,2.4-0.8c0.8-0.2,1.7-0.3,2.6-0.3
	c0.9,0,1.7,0.1,2.5,0.3c0.8,0.2,1.6,0.4,2.4,0.8c0.7,0.3,1.5,0.7,2.1,1.2c1.4,0.9,2.6,2.1,3.5,3.5c0.5,0.7,0.8,1.4,1.2,2.2
	c0.3,0.8,0.6,1.6,0.8,2.4c0.5,2.5,0.3,5.2-0.8,7.6c-0.3,0.8-0.7,1.5-1.2,2.2c-0.9,1.4-2.1,2.6-3.5,3.5c-0.7,0.5-1.4,0.8-2.2,1.2
	c-0.8,0.3-1.6,0.6-2.4,0.8C138.6,98.4,137.7,98.5,136.9,98.5L136.9,98.5z M136.9,75.1c-0.7,0-1.4,0.1-2.1,0.2
	c-0.7,0.1-1.4,0.4-2,0.6c-0.6,0.3-1.2,0.6-1.8,1s-1.1,0.8-1.6,1.3s-0.9,1-1.3,1.6c-0.4,0.6-0.7,1.2-1,1.8c-0.3,0.6-0.5,1.3-0.6,2
	s-0.2,1.4-0.2,2.1s0.1,1.4,0.2,2.1s0.3,1.4,0.6,2c0.3,0.6,0.6,1.2,1,1.8c0.4,0.6,0.8,1.1,1.3,1.6s1,0.9,1.6,1.3s1.1,0.7,1.8,1
	c0.6,0.3,1.3,0.5,2,0.6s1.4,0.2,2.1,0.2c0.7,0,1.4-0.1,2.1-0.2c0.7-0.1,1.4-0.4,2-0.6c0.6-0.3,1.2-0.6,1.8-1s1.1-0.8,1.5-1.3
	c0.5-0.5,0.9-1,1.3-1.6c0.4-0.6,0.7-1.2,0.9-1.8c0.3-0.6,0.5-1.3,0.6-2s0.2-1.4,0.2-2.1c0-1.4-0.3-2.8-0.8-4.1
	c-0.3-0.6-0.6-1.2-1-1.8c-0.4-0.6-0.8-1.1-1.3-1.6s-1-0.9-1.5-1.3s-1.1-0.7-1.7-0.9c-0.6-0.3-1.3-0.5-2-0.6
	C138.3,75.2,137.6,75.2,136.9,75.1L136.9,75.1z M99,98.5c-1.7,0-3.4-0.3-5-1c-0.8-0.3-1.5-0.7-2.2-1.2s-1.3-1-1.9-1.6
	s-1.1-1.3-1.6-2s-0.9-1.5-1.2-2.2c-0.3-0.8-0.6-1.6-0.7-2.5c-0.2-0.9-0.2-1.7-0.2-2.6c0-3.2,1.3-6.3,3.5-8.6c2.1-2.3,5.1-3.8,8.3-4
	c1.4-0.1,2.8,0,4.2,0.3c1.4,0.4,2.6,0.9,3.8,1.7l0,0c0.3,0.2,0.3,0.5,0.2,0.8c0,0,0,0,0,0.1l-0.6,1c-0.1,0.1-0.2,0.2-0.4,0.3
	c-0.2,0-0.3,0-0.4-0.1c-0.9-0.6-2-1.1-3.1-1.4s-2.2-0.4-3.4-0.3c-1.3,0.1-2.5,0.4-3.7,1s-2.2,1.4-3.1,2.3c-2.8,3-3.6,7.4-2,11.2
	c0.3,0.6,0.6,1.2,1,1.8c0.3,0.5,0.7,1.1,1.2,1.5c0.5,0.5,1,0.9,1.6,1.3s1.2,0.7,1.8,1c0.6,0.3,1.3,0.5,2,0.6s1.4,0.2,2.1,0.2
	c1,0,2-0.1,3-0.4s1.9-0.7,2.7-1.3h0.1c0.1-0.1,0.2-0.1,0.4-0.1c0.1,0,0.3,0.1,0.3,0.2c0.2,0.3,0.5,0.7,0.7,1
	c0.1,0.1,0.1,0.3,0.1,0.4c0,0.2-0.1,0.3-0.3,0.4c-1,0.7-2.2,1.2-3.4,1.5C101.5,98.4,100.2,98.5,99,98.5z"/>
<linearGradient id="Fill-24_80_1_" gradientUnits="userSpaceOnUse" x1="89" y1="66.2004" x2="369.9" y2="66.2004" gradientTransform="matrix(1 0 0 -1 0 106)">
	<stop  offset="0" style="stop-color:#00BE68"/>
	<stop  offset="1" style="stop-color:#007C44"/>
</linearGradient>
<path id="Fill-24_80" class="st4" d="M369.9,16.5h-36.7v8.2h13.4V63h9.9V24.8h13.4L369.9,16.5L369.9,16.5z M317.4,63.1h9.9V16.6
	h-9.9V63.1z M297.4,16.5v28c0,2.3-0.4,10.9-9.2,10.9s-9.3-8.6-9.3-10.9v-28H269v28c0,7.6,3.2,19.1,19.2,19.1s19.1-11.5,19.1-19.1
	v-28H297.4z M235.8,24.8h8.6c4,0,7.3,3.7,7.3,8.7s-3.3,8.7-7.3,8.7h-8.6V24.8z M261.5,33.5c0.1-9.3-7.4-16.9-16.7-16.9
	c-0.1,0-0.2,0-0.4,0h-18.5v46.5h9.9V50.4h7.4l8.4,12.7h11.1l-9.9-14.8C258.2,45.3,261.5,39.6,261.5,33.5L261.5,33.5z M210.5,48.9
	c-4.7,5.4-8.1,6.5-11.6,6.5c-8.3,0-13.9-7.6-13.9-15.6s5.7-15.5,13.9-15.5c4.8,0,9.2,2.5,11.6,6.6l6.6-6.7
	c-4.6-5.2-11.3-8.2-18.2-8.2c-13-0.1-23.6,10.3-23.7,23.2c0,0.2,0,0.4,0,0.6c-0.2,13,10.2,23.6,23.1,23.8c0.2,0,0.4,0,0.6,0
	c6.9,0,13.5-2.9,18.1-8.1L210.5,48.9z M143.9,54.8V43.1h18.4v-8.3h-18.4v-10h22.4v-8.2H134v46.5h33.4v-8.2L143.9,54.8L143.9,54.8z
	 M98.9,24.8h8.6c4,0,7.3,3.7,7.3,8.7s-3.3,8.7-7.3,8.7h-8.6V24.8z M124.6,33.5c0.1-9.3-7.4-16.9-16.7-17c-0.1,0-0.3,0-0.4,0H89V63
	h9.9V50.4h7.4l8.4,12.7h11.1l-10-14.8C121.3,45.3,124.6,39.6,124.6,33.5L124.6,33.5z"/>
</svg>
