<svg xmlns="http://www.w3.org/2000/svg" viewBox="0 0 318.96 80.99"><defs><style>.cls-1{fill:#7310eb;}.cls-2{fill:#24292f;}</style></defs><g id="Layer_2" data-name="Layer 2"><g id="Layer_1-2" data-name="Layer 1"><path class="cls-1" d="M75,66.53a11.14,11.14,0,0,1-4.42-3.44,8.7,8.7,0,0,1-1.79-4.82h7.3A4,4,0,0,0,77.74,61a5.69,5.69,0,0,0,3.54,1.08,5.55,5.55,0,0,0,3.24-.82,2.53,2.53,0,0,0,1.16-2.13,2.22,2.22,0,0,0-1.42-2.09,26.24,26.24,0,0,0-4.53-1.53,38.86,38.86,0,0,1-5.25-1.6A9,9,0,0,1,71,51.39a6.82,6.82,0,0,1-1.48-4.61,7.45,7.45,0,0,1,1.37-4.34,9.27,9.27,0,0,1,3.94-3.11,14.75,14.75,0,0,1,6-1.14A12.38,12.38,0,0,1,89,40.75a9.54,9.54,0,0,1,3.36,6.91H85.42A3.72,3.72,0,0,0,84,45a5.25,5.25,0,0,0-3.39-1,5.39,5.39,0,0,0-3,.72,2.34,2.34,0,0,0-1.06,2A2.38,2.38,0,0,0,78,48.88a22.84,22.84,0,0,0,4.5,1.53A37.82,37.82,0,0,1,87.6,52a9.09,9.09,0,0,1,3.49,2.56,7.11,7.11,0,0,1,1.53,4.58,7.61,7.61,0,0,1-1.37,4.45,9,9,0,0,1-3.94,3.08,14.75,14.75,0,0,1-6,1.12A15.21,15.21,0,0,1,75,66.53Z"/><path class="cls-1" d="M97.2,45.31a13.21,13.21,0,0,1,4.84-5.2,12.65,12.65,0,0,1,6.73-1.86,12,12,0,0,1,5.4,1.16,11.23,11.23,0,0,1,3.81,3V38.66h7.29V81H118V63.4a11.44,11.44,0,0,1-3.88,3.1,11.93,11.93,0,0,1-5.49,1.25A12.3,12.3,0,0,1,102,65.86a13.34,13.34,0,0,1-4.79-5.26,16.29,16.29,0,0,1-1.76-7.66A16,16,0,0,1,97.2,45.31Zm19.69,3.13a7.37,7.37,0,0,0-6.52-3.88,7.35,7.35,0,0,0-3.65,1,7.51,7.51,0,0,0-2.82,2.88,8.92,8.92,0,0,0-1.09,4.52,9.26,9.26,0,0,0,1.09,4.58,7.36,7.36,0,0,0,13,0,10.06,10.06,0,0,0,0-9.11Z"/><path class="cls-1" d="M158.14,38.66V67.33h-7.3V63.71a9.51,9.51,0,0,1-3.65,2.92,11.28,11.28,0,0,1-4.89,1.06,12.15,12.15,0,0,1-6-1.42,10,10,0,0,1-4.06-4.19,13.8,13.8,0,0,1-1.48-6.6V38.66h7.25V54.44a7.45,7.45,0,0,0,1.71,5.26,6,6,0,0,0,4.65,1.83,6.1,6.1,0,0,0,4.71-1.83,7.45,7.45,0,0,0,1.71-5.26V38.66Z"/><path class="cls-1" d="M171.23,38.66V67.33H164V38.66Z"/><path class="cls-1" d="M188,39.54a10.15,10.15,0,0,1,5.15-1.29v7.6h-1.92a7.34,7.34,0,0,0-5.15,1.61c-1.16,1.07-1.73,2.93-1.73,5.59V67.33h-7.25V38.66h7.25v4.45A10.15,10.15,0,0,1,188,39.54Z"/><path class="cls-1" d="M207.59,39.54a10.18,10.18,0,0,1,5.15-1.29v7.6h-1.91a7.32,7.32,0,0,0-5.15,1.61q-1.74,1.6-1.74,5.59V67.33H196.7V38.66h7.24v4.45A10.15,10.15,0,0,1,207.59,39.54Z"/><path class="cls-1" d="M242.76,55.17h-21A7.08,7.08,0,0,0,224,60a6.68,6.68,0,0,0,4.71,1.76,5.92,5.92,0,0,0,5.75-3.46h7.81a13.1,13.1,0,0,1-4.76,6.8,13.89,13.89,0,0,1-8.64,2.67A15,15,0,0,1,221.41,66a13,13,0,0,1-5.13-5.2A16,16,0,0,1,214.45,53a16.21,16.21,0,0,1,1.81-7.82A12.71,12.71,0,0,1,221.33,40a15.29,15.29,0,0,1,7.51-1.81A15.12,15.12,0,0,1,236.16,40a12.46,12.46,0,0,1,5,5A15.08,15.08,0,0,1,243,52.37,18.14,18.14,0,0,1,242.76,55.17Zm-7.3-4.87a5.73,5.73,0,0,0-2-4.47,7.15,7.15,0,0,0-4.81-1.69,6.55,6.55,0,0,0-4.53,1.64,7.08,7.08,0,0,0-2.25,4.52Z"/><path class="cls-1" d="M254.19,29v38.3H247V29Z"/><path class="cls-1" d="M170.32,24.44a3.51,3.51,0,0,0-2.1-.1,1.46,1.46,0,0,0-1.52-.61,1.49,1.49,0,0,0-1.14,1.34,3.87,3.87,0,0,0-2,1.39c-.88,1.25-.93,3.12-.4,3.37a.63.63,0,0,0,.56-.12,5.59,5.59,0,0,0,.63,1.79,5.93,5.93,0,0,0,1.88,2.06,6.65,6.65,0,0,0,2.54,1.07,2.06,2.06,0,0,0,1.84-.51h0a3.48,3.48,0,0,0,1.23-1.6,10.53,10.53,0,0,0,.1-5c.33,0,.48-.09.56-.2C172.89,26.83,171.86,25,170.32,24.44Z"/><path class="cls-1" d="M62.67,32.46a23.48,23.48,0,0,0-7.73-6.6,17.71,17.71,0,0,0-3.62-1.42,1.1,1.1,0,0,1-.61-.41,9.74,9.74,0,0,0-3.39-2.81,10,10,0,0,0-3.22-1,.74.74,0,0,0-.8.52,13.49,13.49,0,0,0-.52,2.85,13.06,13.06,0,0,0,.15,3.17,1.16,1.16,0,0,1-.32,1c-1.11,1.11-2.21,2.3-3.29,3.55S38.11,33,37.53,33.7c-.31.39-.59.71-.82.95l-.53.54c-.34.32-.89.83-1.66,1.47l5,3.14c3.84,2.38,5.43,3.35,7.65,4.91C51,47.35,51.91,48.45,52.35,49a16.65,16.65,0,0,1,2.7,4.8,15.64,15.64,0,0,0,.13-4.17c-.4-3.65-2-5.69-1-8.34A4.67,4.67,0,0,1,54.84,40c1-1.3,2.34-.85,4.52-2.5,1-.72,2.09-1.53,3-2.26A2,2,0,0,0,62.67,32.46Zm-7.41-2.18a2.53,2.53,0,0,1-1.2.28,1.58,1.58,0,0,1-.68-.21c-.54-.32-1-1-.76-1.48a.84.84,0,0,1,.23-.27,1.77,1.77,0,0,1,1.23-.54,1.29,1.29,0,0,1,.64.18A3,3,0,0,1,55.81,30,3.47,3.47,0,0,1,55.26,30.28Z"/><path class="cls-1" d="M54.52,63.73a2.91,2.91,0,0,0,0-1.28A2.75,2.75,0,0,0,52.7,61l.66-2.3a11.44,11.44,0,0,0-.1-4.41c-1.47-6.42-8.33-8.79-22.81-18.56-5.15-3.47-9-6.38-10-11a7.53,7.53,0,0,1,.84-5.89C22.52,17.12,25,15.75,27,16.37a4,4,0,0,1,2.45,2.22c-.08.08-1.18-1.54-2.84-1.67A4.43,4.43,0,0,0,22.94,19c-1.58,2.41-.44,5.73.8,7.57a8.72,8.72,0,0,0,4.86,3.5c5.72,1.28,14.27-5.62,14.58-13.43.27-6.64-5.4-11.23-6.6-12.21C29.08-1.6,17.76-1.14,10,3.74A21.57,21.57,0,0,0,1.16,14.58,23.17,23.17,0,0,0,3.55,34.09c5.23,8,15.67,11.55,26.32,15.14,6.76,2.28,13.48,3.73,14,7.45a5.51,5.51,0,0,1-1.8,4.63c-.08.07-2,1.69-4.09.92a4.1,4.1,0,0,1-2.46-3c0-.05.29.15.54.38a3.22,3.22,0,0,0,.93.92,3.3,3.3,0,0,0,2.68.42,3.68,3.68,0,0,0,2.41-4.16,2.69,2.69,0,0,0-.83-1.27c-2.42-2.23-5.68-2.76-10.46-4.3-1.06-.35-.47-.18-3.24-1.13-3.18-1.08-5.82-1.93-7.67-2.52L18.83,49A11.31,11.31,0,0,0,19,60.23c-2.29,1.53-1.4,3.42-1.4,3.42C17.88,64.93,22.85,68,37,68.07,50.74,68.19,54.18,65.38,54.52,63.73Z"/><path class="cls-2" d="M288.43,31.14V67.19h-3.61V50.33H265.28V67.19h-3.61v-36h3.61V47.33h19.54V31.14Z"/><path class="cls-2" d="M314.63,67.19l-8.92-15.06h-6.66V67.19h-3.61v-36h10.83q6,0,9.16,2.89a9.85,9.85,0,0,1,3.12,7.58,10.24,10.24,0,0,1-2.25,6.68,10.7,10.7,0,0,1-6.62,3.58L319,67.19Zm-15.58-18h7.27c2.82,0,4.95-.69,6.37-2.06a7.31,7.31,0,0,0,2.14-5.52,7.18,7.18,0,0,0-2.06-5.49c-1.38-1.29-3.54-1.93-6.5-1.93h-7.22Z"/></g></g></svg>