<svg xmlns="http://www.w3.org/2000/svg" xmlns:xlink="http://www.w3.org/1999/xlink" id="Layer_1" x="0px" y="0px" viewBox="0 0 993.3 239.9" style="enable-background:new 0 0 993.3 239.9;" xml:space="preserve"><style type="text/css">	.st0{fill-rule:evenodd;clip-rule:evenodd;fill:#1F2B3B;}	.st1{fill:#02488F;}	.st2{fill-rule:evenodd;clip-rule:evenodd;fill:#02488F;}</style><g>	<path id="Shape" class="st0" d="M298.4,177.6c4.2-0.1,8.2,1.4,11.2,4.3c0.2,0.2,0.3,0.5,0.3,0.7s-0.1,0.4-0.3,0.6l-2,2.2h-1.2  c-2.2-2-5-3.2-8-3.3c-6.2,0.7-10.9,5.9-10.9,12.1c-0.1,6.3,4.7,11.6,10.9,12.2c2.9,0,5.8-1.1,8-3c0.3-0.3,0.8-0.3,1.2,0l2,2.1  c0.3,0.4,0.3,0.9,0,1.3c-3,3-7,4.6-11.2,4.6c-9.3,0-16.9-7.6-16.9-16.9C281.5,185.2,289.1,177.6,298.4,177.6L298.4,177.6z"></path>	<path id="Shape_0" class="st0" d="M370,179c0-0.6,0.4-1,1-1h12.5c5.5,0.3,9.7,5,9.4,10.5c-0.2,4-2.9,7.5-6.7,8.9l6.9,12.2  c0.1,0.3,0.1,0.7,0,1c-0.2,0.3-0.5,0.5-0.9,0.4h-3.5c-0.2,0.2-0.5,0.2-0.7,0l-6.1-12.4h-7.1v12c0,0.2-0.1,0.4-0.3,0.6  c-0.2,0.2-0.4,0.3-0.6,0.3h-3c-0.5,0-0.9-0.4-0.9-0.8c0,0,0,0,0-0.1L370,179L370,179z M383.1,194.1c3.2,0,5.7-2.6,5.7-5.7  c0-3.2-2.6-5.7-5.7-5.7h-8.3v11.4H383.1z"></path>	<path id="Shape_1" class="st0" d="M457.4,179c0-0.6,0.3-1,0.9-1h18.4c0.2,0,0.4,0.1,0.6,0.3c0.3,0.1,0.3,0.4,0.3,0.7v2.5  c0,0.5-0.4,0.9-0.9,1h-14.6v9.2h12.2c0.3,0,0.4,0.1,0.7,0.3c0.1,0.2,0.2,0.5,0.1,0.7v2.5c0,0.6-0.3,1-0.9,1h-12.3v9.9h14.6  c0.2,0,0.4,0.1,0.6,0.3c0.3,0.1,0.3,0.4,0.3,0.7v2.5c0,0.5-0.4,0.9-0.9,1h-18.4c-0.6,0-0.9-0.4-0.9-1L457.4,179z"></path>	<path id="Shape_2" class="st0" d="M538.2,209.7l14.2-31.6c0.3-0.2,0.5-0.4,0.9-0.6h0.4c0.4,0.1,0.7,0.3,0.9,0.6l14,31.6  c0.1,0.3,0,0.6-0.2,0.9c-0.1,0.3-0.4,0.4-0.7,0.3l0,0h-2.9c-0.5,0-0.9-0.3-1-0.7l-2.9-6.4h-15.2l-2.8,6.4c-0.2,0.5-0.7,0.7-1.2,0.7  h-2.9c-0.3,0-0.4-0.1-0.6-0.4C538,210.2,538,209.9,538.2,209.7z M559,199.7l-5.7-12.9l-5.5,12.9H559z"></path>	<path id="Shape_3" class="st0" d="M636.8,182.7h-7.6c-0.5-0.1-0.8-0.4-0.9-0.9V179c0-0.5,0.4-0.9,0.9-1h20c0.5,0.1,0.9,0.5,0.9,1  v2.5c0,0.5-0.4,0.9-0.9,1h-7.6v27.9c0,0.5-0.3,0.9-0.8,0.9c0,0,0,0-0.1,0h-3.1c-0.4,0.1-0.8-0.2-0.9-0.7c0-0.1,0-0.1,0-0.2  L636.8,182.7L636.8,182.7z"></path>	<path id="Shape_4" class="st0" d="M722.6,179c0-0.6,0.3-1,0.9-1h3.1c0.5,0.1,0.9,0.5,0.9,1v31c0,0.5-0.4,0.8-0.9,0.9h-3.1  c-0.5,0-0.9-0.3-0.9-0.8V210V179z"></path>	<path id="Shape_5" class="st0" d="M810.7,177.6c9.3-0.1,16.9,7.3,17,16.6s-7.3,16.9-16.6,17s-16.9-7.3-17-16.6v-0.1  c0-4.5,1.7-8.8,4.8-12C802,179.4,806.3,177.7,810.7,177.6z M810.7,206.7c4.9,0,9.4-3,11.2-7.6c1.9-4.6,0.8-9.8-2.6-13.4  c-3.5-3.4-8.6-4.4-13.1-2.5c-6.2,2.6-9.1,9.8-6.5,16C801.6,203.7,805.9,206.6,810.7,206.7L810.7,206.7z"></path>	<path id="Shape_6" class="st0" d="M883.5,178.5c0-0.3,0-0.6,0.3-0.7s0.3-0.1,0.6-0.1h1.2l20.1,23.7V179c-0.1-0.3-0.1-0.5,0.1-0.7  c0.3-0.1,0.4-0.3,0.7-0.3h2.9c0.6,0,0.9,0.4,0.9,1v31.6c0,0.5-0.3,0.9-0.8,0.9h-0.1h-1.5l-20.1-24.2v22.8c0,0.5-0.4,0.8-0.9,0.9  H884c-0.5,0-0.9-0.4-1-0.9L883.5,178.5z"></path>	<path id="Shape_7" class="st0" d="M973.1,206.1l1.2-1.9c0.1-0.3,0.4-0.3,0.7-0.3s0.6,0.1,0.9,0.3c2.1,1.8,4.7,3,7.4,3.3  c1.3,0.2,2.5-0.2,3.5-1c1-0.9,1.6-2.1,1.8-3.4c0-2.7-2.5-4.4-7-6.5c-4.7-1.9-8.5-4.4-8.5-9.9c0.1-2.5,1.3-4.9,3.2-6.5  s4.4-2.4,6.8-2.1c3.1,0,6.1,1,8.6,2.8c0.4,0.4,0.4,1.1,0,1.5l-1.2,1.7c-0.2,0.3-0.4,0.6-0.7,0.8c-0.4,0.1-0.7-0.1-1-0.3  c-1.9-1.3-4-2-6.3-2.2c-3.8,0-5.2,2.5-5.2,4.1s2,4.3,6,5.9c5.2,2.2,9.9,4.7,9.9,10.5c0,2.7-1.1,5.2-3.1,7s-4.7,2.6-7.3,2.2  c-3.7,0.1-7.2-1.2-9.9-3.7c-0.6,0-1-0.4-1-1c0-0.1,0-0.1,0-0.2C972,206.6,972.5,206.1,973.1,206.1z"></path>	<path id="Shape_14" class="st1" d="M281.8,32.2c0-1.8,1.4-3.2,3.2-3.3h39c18.5-1.3,34.5,12.9,35.9,31.6  c-1.3,11.7-8.7,21.9-19.4,26.8c9.3,3.7,22.5,12,22.5,27.9c-0.5,9.3-4.6,18.1-11.5,24.3c-6.9,6.1-16,9.2-25.3,8.5H285  c-1.8,0-3.2-1.5-3.2-3.3V32.2z M320.9,77.1c6.7-0.2,11.9-5.9,11.7-12.5c-0.1-3-1.3-5.8-3.3-7.9c-2.2-2.2-5.2-3.4-8.3-3.3h-13v23.7  H320.9z M323.1,123.8c3.2-0.1,6.3-1.4,8.6-3.7c2.2-2.4,3.5-5.5,3.5-8.8c-0.4-7.3-6.6-12.9-13.9-12.6h-13.4V123L323.1,123.8z"></path>	<path id="Shape_15" class="st1" d="M384.5,32.2c0-0.8,0.4-1.6,1-2.2s1.4-0.9,2.2-1h20c1.7,0.1,3.1,1.5,3.2,3.3v90.6h39.8  c1.8,0,3.2,1.5,3.2,3.3v18.5c0,1.8-1.3,3.2-3.1,3.3h-0.1h-63.4c-1.7-0.2-2.9-1.7-2.8-3.4L384.5,32.2z"></path>	<path id="Shape_16" class="st1" d="M466.5,32.2c0-1.8,1.4-3.2,3.2-3.3h20.4c1.8,0,3.2,1.5,3.2,3.3V101c-0.5,7.8,3.4,15.2,10.1,19.3  c6.5,4.1,14.9,4.1,21.4,0c6.7-4.1,10.5-11.5,10.1-19.3V32.2c0-1.8,1.4-3.2,3.2-3.3h20.6c1.8,0.1,3.2,1.5,3.2,3.3v70  c0,26.7-21.3,48.3-47.7,48.3s-47.7-21.6-47.7-48.3V32.2z"></path>	<path id="Shape_17" class="st1" d="M588.7,32.2c0-1.8,1.4-3.2,3.2-3.3h69.2c1.8,0,3.2,1.5,3.2,3.3v18.7c0,1.8-1.4,3.2-3.2,3.3  h-45.9V75h37.6c1.8,0.1,3.2,1.5,3.2,3.3V97c0,1.8-1.4,3.2-3.2,3.3h-38.2v23h46.1c1.8,0,3.2,1.4,3.2,3.1v0.1V145  c0,1.8-1.4,3.2-3.2,3.3h-69c-1.8,0-3.2-1.5-3.2-3.3L588.7,32.2z"></path>	<path id="Shape_18" class="st1" d="M688.7,131.5l8.3-14.1c1.3-1.8,3.8-2.2,5.7-1c6.9,5.1,15.1,8.3,23.6,9.3  c2.9,0.3,5.8-0.7,7.9-2.7c2.2-1.9,3.5-4.7,3.6-7.6c0-7.1-5.8-12.6-17.2-17.1c-14.4-5.8-32.8-17-32.8-36.9  c0-16.8,12.8-33.8,38.5-33.8c13,0.2,25.6,4.5,36,12.3c1.5,1.4,2,3.6,1,5.5l-8.6,13c-1.2,1.8-4.1,3.3-5.7,2.2  c-7-5.4-15.2-8.9-23.9-10.2c-5.3-0.5-10,3.4-10.5,8.8c0,6.2,5,11,18.4,16.3s33.7,15.6,33.7,38.7c-0.6,10-5.1,19.3-12.5,26  c-7.4,6.5-17,9.8-26.8,9c-13.8,0.7-27.4-4-37.8-13.2C687.9,134.5,687.9,133.9,688.7,131.5z"></path>	<path id="Shape_19" class="st1" d="M787,33.1c0-1.1,0.4-2.2,1.2-3s1.8-1.2,2.9-1.2h19.5c2.3,0,4.1,1.9,4.1,4.1l0,0v44.5  C830.2,63.2,843,47.8,851.5,31c0.9-0.9,2-1.5,3.2-1.6h21.1c2.1,0.1,3.8,1.9,3.7,4c0,0.8-0.3,1.6-0.8,2.2  c-9.8,19.7-21.6,36.3-35.9,48.9c19,13.9,28.4,34.6,39.7,56.4c0.8,1.2,0.9,2.7,0.3,4c-0.7,1.3-2,2.2-3.5,2.2h-23  c-1.1,0.1-2.2-0.1-3.1-0.7c-9-21.7-21.7-39.6-38.6-53.2v50.4c0.1,2.2-1.6,4.1-3.8,4.2h-0.1h-19.6c-1.1,0-2.1-0.4-2.9-1.2  c-0.8-0.8-1.2-1.9-1.2-3L787,33.1z"></path>	<path id="Shape_20" class="st1" d="M929.2,90.6l-36.9-57.1c-0.7-1-0.7-2.2-0.2-3.3c0.6-1,1.6-1.6,2.8-1.6h21.7c1.1,0,2,0.6,2.6,1.5  l23.3,34.7l23.2-34.7c0.5-0.9,1.5-1.5,2.6-1.5H990c1.7,0,3.1,1.4,3.2,3.1c0,0.6-0.2,1.2-0.5,1.8l-37.3,56.9v54  c-0.1,1.8-1.5,3.2-3.2,3.3h-19.8c-1.8,0-3.2-1.4-3.2-3.1v-0.1L929.2,90.6z"></path>	<path class="st2" d="M118,0c65.2,0,118,53.7,118,120s-52.8,120-117.9,120c-5,0-9.9-0.3-14.9-0.9c-3.2-0.9-4.8-0.8-5.8-1.5  c-1.5-13.8-3.8-25.1-5.8-37.2c-3.3-0.1-2.9,0.1-8.6,1.8c0-1.3,29.6-13.9,42.7-23.7c1.3-0.9,0.9-1-0.2-2.4c-0.3-0.4,0.6-1,1-1.3  c4.7-3.6,8.8-6.7,9.8-7.6c1.8-1.6,6.6-4.9,7.1-7.1c2.3-8.6,22.6-46.1,31.8-71.5c0.3-1-1.2-3.7-0.7-4.9c0.9-3,1.8-5.9,2.3-8.6  l5.1-3.3l2,1.8L204,61.2c-2.4-5-5.3-9.7-8.8-14.1c-6.1,4-12.1,8-18.2,12c-1.6,1,1.2,6.2,1.9,7.4c-1.5-0.6-2.2-1.9-2.8-3.7L146.6,81  l-1.2,2.1l-25.2,17.1c-1.9-3.9-11.8,3.8-13,4.9c0,0-2.6,2.2-2,4.9l-0.9,0.4l-0.6-0.7l-2,1.3l3.9,8.4l2.5-1.3l-0.3-0.7  c0.9,0.7,0.7,0.7,2.6,0.7c1.6,4.4,3.4,12.2,4.5,25.6c0.7,9.9-29.4,17.2-36.4,19c-0.4,0.1,0-5,0.4-8c-0.9-0.4-1.7-1-2.2-1.8  c2.5,0.4,12.7,1,14.2-4.9c0.3-1.2-0.2-1.5-0.2-2.2c-0.4-5.6,1.2-3.3,0.9-6.5c-0.4-0.4-0.7-0.8-1-1.3c0-0.6,0.9-1.9,0.4-3.4  c-0.6-2.1-1.6-0.9-1.8-4.3c1.6-3.7,1.5-2.2,2.5-4.6c0.3-0.7-0.1-1-0.9-1.3c-4.5-2.2-4.1-2.5-6.3-8.8c-1.3-4.2-2.8-5.9-4.2-8.9  c-0.2-0.4-4.7-0.4-5.5-2.1c2.2,2.1,12.2-2.4,10.9-6.4c-2.5,0.9-5,1.2-6.7,0c1.8-2.8,4.1-5.8,5-10.7c-11.8,7-19.2,3.9-32.5,7.4  c-6.2,1.7-11.9,4.9-16.7,9.2c-0.4,0.4-0.7,2.7-0.6,4.4c-1.2-2.4-0.2-6.7,0.3-8.9c-3,3.7-5,8.1-5.8,12.8  c-5.4,10.2-5.2,22.2,0.7,30.6c10.4,14.7,20.1,8.1,24.2,16c-1.5,1.3-1.5,2.2-3.7,3c-0.4,0.1-7,1.6-9.5,3.7c-1.8,1.5-4.1,1.8-4.8,7.9  c-3.9,2.1-7.7,4.3-8.2,4.6c-9.6,5.5-4.7,11.3-1.6,16.9C9.2,173.8,0,147.3,0,120C0,53.7,52.8,0,118,0z M171.4,78.6  c-2.2,4.9-4.4,9.8-5.5,9.5c-0.9-0.2-1.2-2.5-1.6-4.8c-0.1-1-0.6-1.9-1.3-2.5l2.6,1.6L171.4,78.6z M161.4,85.1  c-0.1,4.3-3.4,8.3-0.7,13.2c1.4,2.7-19,29.4-28.1,42.1c-0.4,0.6,2.8,11.6,2.3,12s-13.8-33.4-15.6-38.2c-0.3-0.6,1-3,0.7-3.7  l0.4-0.9L150,91.2l1,0.4l5.4-3.3L161.4,85.1z"></path></g></svg>