<svg id="Layer_1" data-name="Layer 1" xmlns="http://www.w3.org/2000/svg" viewBox="0 0 100 100"><defs><style>.cls-1{fill:#05f;}.cls-1,.cls-2{fill-rule:evenodd;}.cls-2{fill:#24292f;}</style></defs><path id="Shape" class="cls-1" d="M55.78,16.87l7.65,10.57a7.29,7.29,0,0,1,0,8.6h0a7,7,0,0,1-9.8,1.58l-.2-.15A14.08,14.08,0,0,1,52,36L50.1,33.52,42.48,44,24.54,68.46,13.85,83.24a7.16,7.16,0,0,1-5.74,3A7.3,7.3,0,0,1,.78,79a9.62,9.62,0,0,1,1.46-4.35L44.17,17a7.37,7.37,0,0,1,10.34-1.25l.09.07A3.92,3.92,0,0,1,55.78,16.87Z"/><path id="Shape-2" class="cls-1" d="M96.16,84.68a7.45,7.45,0,0,1-10-1.44L78.48,72.67a7.36,7.36,0,0,1,0-8.6h0a7,7,0,0,1,9.84-1.57,1.33,1.33,0,0,1,.19.14A6.83,6.83,0,0,1,90,64.07L97.74,74.5a7.46,7.46,0,0,1-1.58,10.15Z"/><path id="Shape-3" class="cls-2" d="M13.85,16.87,21.5,27.3a7.36,7.36,0,0,1,0,8.6h0a7,7,0,0,1-9.84,1.6l-.19-.14A7.76,7.76,0,0,1,10,35.9L2.35,25.32A7.31,7.31,0,0,1,3.64,15.15a7.14,7.14,0,0,1,9.92,1.4s.29.26.29.37Z"/><path id="Shape-4" class="cls-2" d="M97.74,25.46,84.15,43.92,66.47,68.31,55.78,83.1a7.49,7.49,0,0,1-5.73,3,7.11,7.11,0,0,1-5.74-3L36.66,72.55a7.28,7.28,0,0,1,0-8.59h0a7,7,0,0,1,9.71-1.87l.44.32a14.37,14.37,0,0,1,1.46,1.46l1.83,2.49,7.66-10.54L75.44,31.54,86.27,16.75A7.18,7.18,0,0,1,96.16,15,7.45,7.45,0,0,1,98,25.15a.36.36,0,0,0-.25.4Z"/></svg>