<svg id="Layer_1" data-name="Layer 1" xmlns="http://www.w3.org/2000/svg" viewBox="0 0 100 100"><defs><style>.cls-1{fill:#02488f;fill-rule:evenodd;}</style></defs><path class="cls-1" d="M50,1C76.61,1,98.16,22.94,98.16,50S76.61,99,50,99A49.61,49.61,0,0,1,44,98.61,13.49,13.49,0,0,1,41.59,98C41,92.37,40,87.75,39.22,82.82c-1.34,0-1.18,0-3.51.73,0-.53,12.09-5.67,17.43-9.67.53-.37.37-.41-.08-1-.12-.17.25-.41.41-.53,1.92-1.47,3.59-2.74,4-3.11.73-.65,2.69-2,2.9-2.89.94-3.51,9.22-18.82,13-29.19.12-.4-.49-1.51-.29-2A32.41,32.41,0,0,0,74,31.67l2.08-1.34.82.73L85.1,26a29.89,29.89,0,0,0-3.59-5.75l-7.43,4.89c-.65.41.49,2.53.78,3a2.11,2.11,0,0,1-1.15-1.51l-12,7.43-.49.86-10.28,7c-.78-1.59-4.82,1.55-5.31,2a2.31,2.31,0,0,0-.81,2l-.37.16-.25-.28-.81.53,1.59,3.43,1-.54-.12-.28c.36.28.28.28,1.06.28a42,42,0,0,1,1.83,10.45c.29,4-12,7-14.85,7.76A12.26,12.26,0,0,1,34,64.16a2,2,0,0,1-.9-.73c1,.16,5.19.41,5.8-2,.12-.49-.08-.61-.08-.9-.17-2.29.49-1.35.36-2.65a3,3,0,0,1-.4-.53c0-.25.36-.78.16-1.39-.25-.86-.65-.37-.73-1.76.65-1.51.61-.89,1-1.87.12-.29-.05-.41-.37-.53-1.84-.9-1.68-1-2.57-3.6a22.17,22.17,0,0,0-1.72-3.63c-.08-.16-1.92-.16-2.24-.86.9.86,5-1,4.45-2.61a3.05,3.05,0,0,1-2.74,0,11,11,0,0,0,2-4.36c-4.81,2.85-7.83,1.59-13.26,3A17,17,0,0,0,16,43.51a4,4,0,0,0-.24,1.8c-.49-1-.08-2.74.12-3.64a11.3,11.3,0,0,0-2.37,5.23c-2.2,4.16-2.12,9.06.29,12.49,4.24,6,8.2,3.3,9.87,6.53-.61.53-.61.9-1.51,1.22a12.59,12.59,0,0,0-3.87,1.51c-.74.61-1.68.74-2,3.23-1.59.85-3.14,1.75-3.35,1.87-3.92,2.25-1.92,4.62-.65,6.9A49.92,49.92,0,0,1,1.84,50C1.84,22.94,23.39,1,50,1ZM71.8,33.1c-.9,2-1.8,4-2.25,3.88s-.49-1-.65-2a1.59,1.59,0,0,0-.53-1l1.06.65Zm-4.09,2.66c0,1.75-1.38,3.38-.28,5.38.57,1.11-7.76,12-11.47,17.19-.16.24,1.14,4.73.94,4.89s-5.63-13.63-6.37-15.59c-.12-.24.41-1.22.29-1.51l.16-.36,12.08-7.51.41.16,2.2-1.35Z"/></svg>