<svg id="Layer_1" data-name="Layer 1" xmlns="http://www.w3.org/2000/svg" viewBox="0 0 100 100"><defs><style>.cls-1{fill:#7310eb;}</style></defs><path class="cls-1" d="M94.69,47.74a33.67,33.67,0,0,0-11.1-9.48,25.53,25.53,0,0,0-5.2-2,1.61,1.61,0,0,1-.88-.59,13.87,13.87,0,0,0-4.87-4A14.13,14.13,0,0,0,68,30.16a1.07,1.07,0,0,0-1.15.75A20.19,20.19,0,0,0,66.12,35a18.74,18.74,0,0,0,.22,4.55A1.69,1.69,0,0,1,65.88,41c-1.59,1.59-3.17,3.3-4.72,5.1s-1.74,2.43-2.58,3.43c-.44.56-.84,1-1.17,1.37l-.76.77c-.49.46-1.28,1.19-2.39,2.11l7.18,4.51c5.52,3.42,7.8,4.81,11,7,5.5,3.8,6.81,5.38,7.44,6.17a23.67,23.67,0,0,1,3.88,6.89,22.25,22.25,0,0,0,.18-6c-.57-5.24-2.87-8.17-1.43-12a6.24,6.24,0,0,1,1-1.85c1.43-1.87,3.36-1.22,6.49-3.59,1.43-1,3-2.2,4.31-3.25A2.88,2.88,0,0,0,94.69,47.74ZM84.05,44.61a3.7,3.7,0,0,1-1.73.4,2.24,2.24,0,0,1-1-.3c-.78-.46-1.44-1.44-1.09-2.13a1.1,1.1,0,0,1,.33-.38,2.56,2.56,0,0,1,1.76-.78,1.85,1.85,0,0,1,.92.26,4.32,4.32,0,0,1,1.57,2.53A5.85,5.85,0,0,1,84.05,44.61Z"/><path class="cls-1" d="M83,92.65a4.39,4.39,0,0,0,0-1.84,4,4,0,0,0-2.62-2.08l.95-3.3a16.7,16.7,0,0,0-.14-6.34c-2.12-9.22-12-12.62-32.76-26.65-7.4-5-12.93-9.17-14.37-15.8a10.82,10.82,0,0,1,1.21-8.46c1.77-2.47,5.33-4.44,8.2-3.55A5.76,5.76,0,0,1,47,27.82c-.12.11-1.69-2.21-4.08-2.4a6.36,6.36,0,0,0-5.27,3c-2.27,3.46-.63,8.23,1.15,10.87a12.51,12.51,0,0,0,7,5C54,46.15,66.25,36.24,66.7,25c.39-9.54-7.76-16.13-9.48-17.54-10.77-8.66-27-8-38.17-1A30.93,30.93,0,0,0,6.35,22.06a33.3,33.3,0,0,0,3.43,28c7.51,11.49,22.51,16.59,37.8,21.75,9.71,3.27,19.36,5.35,20.11,10.7a7.9,7.9,0,0,1-2.59,6.64c-.11.11-2.87,2.43-5.87,1.33a5.88,5.88,0,0,1-3.53-4.31c0-.07.41.21.77.54a4.56,4.56,0,0,0,1.34,1.32,4.72,4.72,0,0,0,3.85.61,5.29,5.29,0,0,0,3.46-6,3.92,3.92,0,0,0-1.19-1.82c-3.48-3.2-8.16-4-15-6.18-1.52-.5-.67-.26-4.65-1.62-4.57-1.55-8.36-2.77-11-3.62L31.73,71.5A16.22,16.22,0,0,0,32,87.62c-3.29,2.2-2,4.92-2,4.92.4,1.83,7.54,6.24,27.86,6.34C77.56,99.06,82.5,95,83,92.65Z"/></svg>