<svg id="Layer_1" data-name="Layer 1" xmlns="http://www.w3.org/2000/svg" viewBox="0 0 100 100"><defs><style>.cls-1{fill:#ff4000;}</style></defs><path class="cls-1" d="M95.77,59.15A39.74,39.74,0,0,1,83.2,86.58,46.2,46.2,0,0,1,54,98.82,49.27,49.27,0,0,1,3.6,60.05,48,48,0,0,1,9.43,24.56,49.28,49.28,0,0,1,71.12,5.26,52.22,52.22,0,0,1,97.57,34.17l-4.84,2.06c-1.56.74-3.21,1.56-4.77,2.13L71.53,45.84l-10.92,4.6L54.69,52.9,51.9,54.05h0L75.72,29.9a30.31,30.31,0,0,0-23.66-9.45A29.08,29.08,0,0,0,43,22.51,33.72,33.72,0,0,0,26.52,35.73a30,30,0,0,0-4.69,20.71,34.45,34.45,0,0,0,10.68,20,38.86,38.86,0,0,0,46.33,4.35,34.05,34.05,0,0,0,4.52-3.28A40.19,40.19,0,0,0,95.77,59.15Z"/></svg>